<?xml version="1.0" encoding="iso-8859-1"?>
<!-- Generator: Adobe Illustrator 19.0.0, SVG Export Plug-In . SVG Version: 6.00 Build 0)  -->
<svg version="1.1" id="Capa_1" xmlns="http://www.w3.org/2000/svg" xmlns:xlink="http://www.w3.org/1999/xlink" x="0px" y="0px"
	 viewBox="0 0 512 512" style="enable-background:new 0 0 512 512;" xml:space="preserve">
<g>
	<g>
		<path d="M480.529,320.301l-36.964-190.624c-0.791-4.074-4.724-6.74-8.808-5.947c-4.074,0.791-6.737,4.733-5.948,8.808
			l35.534,183.247l-102.133,19.806c-4.074,0.791-6.737,4.733-5.948,8.808l19.805,102.135l-253.451,49.146L47.656,109.11
			l91.212-17.687v76.406c0,4.15,3.365,7.515,7.515,7.515h96.188c4.15,0,7.515-3.365,7.515-7.515V69.857L410.62,38.728l11.496,59.284
			c0.696,3.591,3.842,6.086,7.369,6.086c0.474,0,0.955-0.045,1.439-0.139c4.074-0.791,6.737-4.733,5.948-8.808l-12.925-66.662
			c-0.779-4.013-4.788-6.729-8.808-5.947L250.086,54.547V7.515c0-5.881-6.778-9.524-11.683-6.252l-19.879,13.253L198.645,1.262
			c-2.525-1.683-5.812-1.683-8.336,0L170.43,14.515L150.551,1.262c-4.905-3.27-11.683,0.37-11.683,6.252v68.599L37.418,95.786
			c-4.014,0.778-6.726,4.788-5.947,8.808l77.82,401.325c0.779,4.018,4.787,6.729,8.808,5.947l268.205-52.008
			c1.933-0.376,3.695-1.54,4.797-3.172l88.277-130.748c0.231-0.344,0.43-0.713,0.602-1.091
			C480.624,323.438,480.825,321.825,480.529,320.301z M153.897,21.556l12.364,8.243c2.525,1.683,5.812,1.683,8.336,0l19.879-13.253
			l19.879,13.253c2.525,1.683,5.812,1.683,8.336,0l12.364-8.243v138.758h-81.159V21.556z M388.798,433.24l-16.35-84.324
			l84.323-16.352L388.798,433.24z"/>
	</g>
</g>
<g>
</g>
<g>
</g>
<g>
</g>
<g>
</g>
<g>
</g>
<g>
</g>
<g>
</g>
<g>
</g>
<g>
</g>
<g>
</g>
<g>
</g>
<g>
</g>
<g>
</g>
<g>
</g>
<g>
</g>
</svg>
