<?xml version="1.0" encoding="iso-8859-1"?>
<!-- Generator: Adobe Illustrator 19.0.0, SVG Export Plug-In . SVG Version: 6.00 Build 0)  -->
<svg version="1.1" id="Capa_1" xmlns="http://www.w3.org/2000/svg" xmlns:xlink="http://www.w3.org/1999/xlink" x="0px" y="0px"
	 viewBox="0 0 512 512" style="enable-background:new 0 0 512 512;" xml:space="preserve">
<g>
	<g>
		<path d="M464.407,72.642c4.151,0,7.515-3.365,7.515-7.515V7.515c0-4.15-3.364-7.515-7.515-7.515H199.89
			c-4.081,0-7.515,3.426-7.515,7.515v104.705H47.593c-4.151,0-7.515,3.365-7.515,7.515v384.751c0,4.15,3.364,7.515,7.515,7.515
			h256.501c4.151,0,7.515-3.365,7.515-7.515V399.781h152.798c4.151,0,7.515-3.365,7.515-7.515V101.198
			c0-4.15-3.364-7.515-7.515-7.515s-7.515,3.365-7.515,7.515v283.554H311.609V327.64h24.548c4.151,0,7.515-3.365,7.515-7.515
			s-3.364-7.515-7.515-7.515h-24.548v-41.08h112.72c4.151,0,7.515-3.365,7.515-7.515c0-4.15-3.364-7.515-7.515-7.515h-112.72
			v-33.065h48.595c4.151,0,7.515-3.365,7.515-7.515c0-4.15-3.364-7.515-7.515-7.515h-48.595v-33.065h64.626
			c4.151,0,7.515-3.365,7.515-7.515c0-4.15-3.364-7.515-7.515-7.515h-64.626v-33.065h88.673c4.151,0,7.515-3.365,7.515-7.515
			c0-4.15-3.364-7.515-7.515-7.515h-92.91l-30.703-33.065h43.457c4.151,0,7.515-3.365,7.515-7.515c0-4.15-3.364-7.515-7.515-7.515
			h-56.11c-0.411,0-0.812,0.042-1.205,0.105l-45.687-49.201h239.769v50.098C456.892,69.277,460.256,72.642,464.407,72.642z
			 M296.579,496.971H55.108V223.436h240.971c0.169,0,0.335-0.014,0.501-0.025V496.971z M296.579,208.407H55.108v-81.159h241.472
			V208.407z M286.861,112.219h-79.456V26.651L286.861,112.219z"/>
	</g>
</g>
<g>
	<g>
		<path d="M424.329,64.125h-72.141c-4.151,0-7.515,3.365-7.515,7.515c0,4.15,3.364,7.515,7.515,7.515h72.141
			c4.151,0,7.515-3.365,7.515-7.515C431.843,67.49,428.48,64.125,424.329,64.125z"/>
	</g>
</g>
<g>
	<g>
		<path d="M424.329,160.313h-24.047c-4.151,0-7.515,3.365-7.515,7.515c0,4.15,3.364,7.515,7.515,7.515h24.047
			c4.151,0,7.515-3.365,7.515-7.515C431.843,163.678,428.48,160.313,424.329,160.313z"/>
	</g>
</g>
<g>
	<g>
		<path d="M424.329,208.407h-40.078c-4.151,0-7.515,3.365-7.515,7.515c0,4.15,3.364,7.515,7.515,7.515h40.078
			c4.151,0,7.515-3.365,7.515-7.515C431.843,211.772,428.48,208.407,424.329,208.407z"/>
	</g>
</g>
<g>
	<g>
		<path d="M424.329,312.611h-64.125c-4.151,0-7.515,3.365-7.515,7.515s3.364,7.515,7.515,7.515h64.125
			c4.151,0,7.515-3.365,7.515-7.515S428.48,312.611,424.329,312.611z"/>
	</g>
</g>
<g>
	<g>
		<path d="M114.594,144.854c-2.808-1.163-6.04-0.52-8.19,1.629l-10.717,10.718L84.97,146.483c-2.15-2.15-5.383-2.792-8.19-1.629
			c-2.808,1.163-4.639,3.904-4.639,6.943v32.063c0,4.15,3.364,7.515,7.515,7.515s7.515-3.365,7.515-7.515v-13.921l3.202,3.203
			c2.936,2.935,7.693,2.935,10.628,0l3.202-3.203v13.921c0,4.15,3.364,7.515,7.515,7.515c4.151,0,7.515-3.365,7.515-7.515v-32.063
			C119.233,148.757,117.402,146.017,114.594,144.854z"/>
	</g>
</g>
<g>
	<g>
		<path d="M159.812,176.344H143.28v-1.002h8.517c4.151,0,7.515-3.365,7.515-7.515c0-4.15-3.364-7.515-7.515-7.515h-8.517v-1.002
			h16.532c4.151,0,7.515-3.365,7.515-7.515c0-4.15-3.364-7.515-7.515-7.515h-24.047c-4.151,0-7.515,3.365-7.515,7.515v32.063
			c0,4.15,3.364,7.515,7.515,7.515h24.047c4.151,0,7.515-3.365,7.515-7.515C167.327,179.709,163.963,176.344,159.812,176.344z"/>
	</g>
</g>
<g>
	<g>
		<path d="M215.922,144.282c-4.151,0-7.515,3.365-7.515,7.515v13.921l-19.234-19.235c-4.637-4.637-12.829-1.237-12.829,5.313v32.063
			c0,4.15,3.364,7.515,7.515,7.515c4.151,0,7.515-3.365,7.515-7.515v-13.921l19.234,19.235c4.641,4.639,12.829,1.225,12.829-5.313
			v-32.063C223.436,147.646,220.073,144.282,215.922,144.282z"/>
	</g>
</g>
<g>
	<g>
		<path d="M272.031,144.282c-4.151,0-7.515,3.365-7.515,7.515v24.548h-17.033v-24.548c0-4.15-3.364-7.515-7.515-7.515
			s-7.515,3.365-7.515,7.515v32.063c0,4.15,3.364,7.515,7.515,7.515h32.063c4.151,0,7.515-3.365,7.515-7.515v-32.063
			C279.546,147.646,276.182,144.282,272.031,144.282z"/>
	</g>
</g>
<g>
	<g>
		<path d="M166.957,435.752c-1.004-3.095-3.89-5.192-7.145-5.192h-25.157l-7.774-23.926c-1.006-3.096-3.892-5.193-7.147-5.193
			c-3.255,0-6.141,2.096-7.147,5.193l-7.774,23.926H79.656c-3.255,0-6.141,2.096-7.147,5.193c-1.006,3.096,0.096,6.488,2.73,8.401
			l20.353,14.788l-7.775,23.926c-1.006,3.096,0.096,6.489,2.73,8.401c2.634,1.914,6.2,1.914,8.833,0l20.353-14.787l20.353,14.787
			c2.825,2.051,6.794,1.855,9.404-0.461c2.213-1.963,3.073-5.127,2.159-7.942l-7.775-23.926l20.353-14.788
			C166.861,442.24,167.963,438.848,166.957,435.752z M130.625,449.992c-2.634,1.914-3.736,5.305-2.73,8.401l2.315,7.122
			l-6.059-4.403c-1.317-0.957-2.867-1.435-4.417-1.435c-1.55,0-3.1,0.479-4.417,1.435l-6.059,4.403l2.315-7.122
			c1.006-3.096-0.096-6.489-2.73-8.401l-6.059-4.403h7.49c3.255,0,6.141-2.096,7.147-5.193l2.315-7.122l2.315,7.122
			c1.006,3.096,3.892,5.193,7.147,5.193h7.49L130.625,449.992z"/>
	</g>
</g>
<g>
	<g>
		<path d="M279.176,435.753c-1.004-3.096-3.89-5.193-7.145-5.193h-25.157l-7.774-23.926c-1.006-3.096-3.892-5.193-7.147-5.193
			c-3.255,0-6.141,2.096-7.147,5.193l-7.774,23.926h-25.157c-3.255,0-6.141,2.096-7.147,5.193c-1.006,3.096,0.096,6.488,2.73,8.401
			l20.353,14.788l-7.775,23.926c-0.962,2.961,0.049,6.296,2.495,8.224c2.613,2.059,6.378,2.133,9.069,0.178l20.353-14.787
			l20.353,14.787c2.825,2.051,6.794,1.855,9.404-0.461c2.213-1.963,3.073-5.127,2.159-7.941l-7.775-23.926l20.353-14.788
			C279.08,442.241,280.182,438.849,279.176,435.753z M242.844,449.992c-2.634,1.914-3.736,5.305-2.73,8.401l2.315,7.122
			l-6.059-4.403c-1.317-0.957-2.867-1.435-4.417-1.435s-3.1,0.479-4.417,1.435l-6.059,4.403l2.315-7.122
			c1.006-3.096-0.096-6.489-2.73-8.401l-6.059-4.403h7.49c3.255,0,6.141-2.096,7.147-5.193l2.315-7.122l2.315,7.122
			c1.006,3.096,3.892,5.193,7.147,5.193h7.49L242.844,449.992z"/>
	</g>
</g>
<g>
	<g>
		<path d="M264.016,240.47H87.671c-4.151,0-7.515,3.365-7.515,7.515V384.25c0,4.15,3.364,7.515,7.515,7.515h176.344
			c4.151,0,7.515-3.365,7.515-7.515V247.984C271.53,243.834,268.167,240.47,264.016,240.47z M256.501,376.736H95.186V255.499
			h161.315V376.736z"/>
	</g>
</g>
<g>
	<g>
		<path d="M231.953,272.532H119.734c-4.151,0-7.515,3.365-7.515,7.515c0,4.15,3.364,7.515,7.515,7.515h112.219
			c4.151,0,7.515-3.365,7.515-7.515C239.468,275.897,236.104,272.532,231.953,272.532z"/>
	</g>
</g>
<g>
	<g>
		<path d="M183.859,312.611h-64.125c-4.151,0-7.515,3.365-7.515,7.515s3.364,7.515,7.515,7.515h64.125
			c4.151,0,7.515-3.365,7.515-7.515S188.01,312.611,183.859,312.611z"/>
	</g>
</g>
<g>
	<g>
		<path d="M231.953,312.611h-24.047c-4.151,0-7.515,3.365-7.515,7.515s3.364,7.515,7.515,7.515h24.047
			c4.151,0,7.515-3.365,7.515-7.515S236.104,312.611,231.953,312.611z"/>
	</g>
</g>
<g>
	<g>
		<path d="M207.906,344.673h-88.172c-4.151,0-7.515,3.365-7.515,7.515s3.364,7.515,7.515,7.515h88.172
			c4.151,0,7.515-3.365,7.515-7.515S212.057,344.673,207.906,344.673z"/>
	</g>
</g>
<g>
</g>
<g>
</g>
<g>
</g>
<g>
</g>
<g>
</g>
<g>
</g>
<g>
</g>
<g>
</g>
<g>
</g>
<g>
</g>
<g>
</g>
<g>
</g>
<g>
</g>
<g>
</g>
<g>
</g>
</svg>
