<?xml version="1.0" encoding="iso-8859-1"?>
<!-- Generator: Adobe Illustrator 19.0.0, SVG Export Plug-In . SVG Version: 6.00 Build 0)  -->
<svg version="1.1" id="Capa_1" xmlns="http://www.w3.org/2000/svg" xmlns:xlink="http://www.w3.org/1999/xlink" x="0px" y="0px"
	 viewBox="0 0 512 512" style="enable-background:new 0 0 512 512;" xml:space="preserve">
<g>
	<g>
		<path d="M380.243,32.063c-48.342,0-87.671,39.329-87.671,87.671c0,48.342,39.329,87.671,87.671,87.671
			s87.671-39.329,87.671-87.671C467.914,71.391,428.585,32.063,380.243,32.063z M380.243,192.376
			c-40.055,0-72.642-32.587-72.642-72.642s32.587-72.642,72.642-72.642c40.055,0,72.642,32.587,72.642,72.642
			C452.885,159.789,420.298,192.376,380.243,192.376z"/>
	</g>
</g>
<g>
	<g>
		<path d="M424.186,89.242l-40.078-24.047c-2.38-1.427-5.352-1.427-7.732,0l-40.078,24.047c-2.263,1.359-3.648,3.804-3.648,6.445
			v64.125c0,4.151,3.364,7.515,7.515,7.515h28.055c4.151,0,7.515-3.364,7.515-7.515v-32.564h9.018v32.564
			c0,4.151,3.364,7.515,7.515,7.515h28.055c4.151,0,7.515-3.364,7.515-7.515V95.687C427.836,93.047,426.451,90.601,424.186,89.242z
			 M412.806,152.297h-13.025v-32.564c0-4.151-3.364-7.515-7.515-7.515h-24.047c-4.151,0-7.515,3.364-7.515,7.515v32.564h-13.025
			V99.941l32.564-19.538l32.564,19.538V152.297z"/>
	</g>
</g>
<g>
	<g>
		<path d="M468.415,400.783h-34.839l-15.678-58.793c-3.903-14.629-15.751-25.524-30.141-28.54v-74.226
			c62.533-3.893,112.219-55.994,112.219-119.491C499.977,53.712,446.265,0,380.243,0S260.509,53.712,260.509,119.734
			c0,63.497,49.686,115.599,112.219,119.491v73.385H108.297c-17.902,0-33.628,12.082-38.242,29.379l-15.678,58.793H19.538
			c-4.151,0-7.515,3.364-7.515,7.515v32.063c0,4.151,3.364,7.515,7.515,7.515H39.42l28.452,45.524
			C75.152,505.046,87.698,512,101.434,512h285.084c13.736,0,26.282-6.954,33.563-18.601l28.453-45.524h19.882
			c4.151,0,7.515-3.364,7.515-7.515v-32.063C475.93,404.146,472.566,400.783,468.415,400.783z M275.538,119.734
			c0-57.734,46.971-104.704,104.705-104.704S484.947,62,484.947,119.734c0,57.734-46.971,104.705-104.704,104.705
			S275.538,177.468,275.538,119.734z M407.336,485.433c-4.515,7.224-12.297,11.538-20.817,11.538H101.434
			c-8.52,0-16.303-4.313-20.817-11.538l-23.474-37.558h140.887l6.593,26.37c0.837,3.346,3.843,5.692,7.29,5.692h64.125
			c3.448,0,6.454-2.347,7.29-5.692l6.593-26.37h140.887L407.336,485.433z M213.522,447.875h60.908l-4.258,17.033H217.78
			L213.522,447.875z M460.9,432.845H27.053v-17.033H336.49c4.151,0,7.515-3.364,7.515-7.515c0-4.151-3.364-7.515-7.515-7.515H69.932
			l14.646-54.92c2.862-10.729,12.616-18.223,23.719-18.223h271.36c11.104,0,20.858,7.494,23.719,18.224l14.646,54.919h-46.796
			c-4.151,0-7.515,3.364-7.515,7.515c0,4.151,3.364,7.515,7.515,7.515H460.9V432.845z"/>
	</g>
</g>
<g>
	<g>
		<path d="M250.392,260.717c-6.373-7.314-7.701-8.835-1.101-15.434c2.935-2.936,2.935-7.693,0-10.628
			c-2.936-2.934-7.693-2.934-10.628,0c-16.521,16.522-5.515,29.152,0.398,35.936c6.701,7.689,9.208,10.567-0.399,20.172
			c-2.735,2.736-2.918,7.255-0.399,10.197c2.81,3.282,7.971,3.486,11.028,0.432C268.819,281.864,256.832,268.107,250.392,260.717z"
			/>
	</g>
</g>
<g>
	<g>
		<path d="M313.989,260.717c-6.373-7.314-7.701-8.835-1.101-15.434c2.934-2.936,2.934-7.693-0.001-10.629
			c-2.936-2.934-7.693-2.934-10.628,0c-16.521,16.522-5.515,29.152,0.398,35.936c6.701,7.69,9.208,10.568-0.398,20.173
			c-2.735,2.736-2.918,7.255-0.399,10.197c2.809,3.282,7.971,3.486,11.028,0.432C332.416,281.864,320.429,268.107,313.989,260.717z"
			/>
	</g>
</g>
<g>
	<g>
		<path d="M185.739,260.717c-6.373-7.314-7.701-8.835-1.101-15.434c2.935-2.936,2.935-7.693,0-10.628
			c-2.936-2.934-7.693-2.934-10.628,0c-16.521,16.522-5.515,29.152,0.398,35.936c6.701,7.689,9.208,10.567-0.399,20.172
			c-2.735,2.736-2.918,7.255-0.399,10.197c2.809,3.282,7.971,3.486,11.028,0.432C204.166,281.864,192.178,268.107,185.739,260.717z"
			/>
	</g>
</g>
<g>
</g>
<g>
</g>
<g>
</g>
<g>
</g>
<g>
</g>
<g>
</g>
<g>
</g>
<g>
</g>
<g>
</g>
<g>
</g>
<g>
</g>
<g>
</g>
<g>
</g>
<g>
</g>
<g>
</g>
</svg>
