<?xml version="1.0" encoding="iso-8859-1"?>
<!-- Generator: Adobe Illustrator 19.0.0, SVG Export Plug-In . SVG Version: 6.00 Build 0)  -->
<svg version="1.1" id="Capa_1" xmlns="http://www.w3.org/2000/svg" xmlns:xlink="http://www.w3.org/1999/xlink" x="0px" y="0px"
	 viewBox="0 0 512 512" style="enable-background:new 0 0 512 512;" xml:space="preserve">
<g>
	<g>
		<path d="M256.001,0C154.614,0,72.13,82.484,72.13,183.871c0,32.275,9.497,69.589,28.226,110.907
			c14.819,32.688,35.445,68.02,61.308,105.014c43.915,62.815,88.469,109.465,88.913,109.929c2.915,3.04,7.932,3.04,10.847,0
			c0.445-0.464,45-47.114,88.913-109.929c25.863-36.994,46.49-72.326,61.308-105.014c18.729-41.316,28.226-78.631,28.226-110.907
			C439.872,82.484,357.387,0,256.001,0z M338.139,391.008c-34.337,49.14-69.06,88.226-82.139,102.483
			c-13.078-14.258-47.801-53.343-82.139-102.483c-56.72-81.174-86.702-152.8-86.702-207.137
			c0-93.099,75.742-168.841,168.841-168.841s168.841,75.742,168.841,168.841C424.841,238.208,394.861,309.834,338.139,391.008z"/>
	</g>
</g>
<g>
	<g>
		<path d="M358.882,81.987c-2.922-2.949-7.68-2.971-10.628-0.051c-2.949,2.921-2.972,7.679-0.051,10.628
			c24.221,24.456,37.561,56.884,37.561,91.307c0,71.551-58.21,129.762-129.762,129.762S126.24,255.423,126.24,183.872
			S184.45,54.109,256.001,54.109c21.434,0,42.671,5.333,61.414,15.423c3.653,1.967,8.213,0.599,10.18-3.055s0.599-8.213-3.055-10.18
			c-20.925-11.265-44.625-17.219-68.538-17.219c-79.839,0-144.792,64.953-144.792,144.792s64.954,144.792,144.792,144.792
			s144.792-64.953,144.792-144.792C400.793,145.461,385.909,109.277,358.882,81.987z"/>
	</g>
</g>
<g>
	<g>
		<path d="M204.397,96.695h-4.008c-4.15,0-7.515,3.365-7.515,7.515v156.315c0,10.774,8.766,19.539,19.539,19.539
			s19.539-8.766,19.539-19.539v-60.622h8.517c4.15,0,7.515-3.365,7.515-7.515v-52.105
			C247.985,116.249,228.431,96.695,204.397,96.695z M232.954,184.873h-8.517c-4.15,0-7.515,3.365-7.515,7.515v68.137
			c0,2.486-2.023,4.509-4.509,4.509s-4.509-2.023-4.509-4.509V111.94c14.098,1.734,25.051,13.784,25.051,28.343V184.873z"/>
	</g>
</g>
<g>
	<g>
		<path d="M320.631,96.695c-4.15,0-7.515,3.365-7.515,7.515v32.566h-9.018V104.21c0-4.15-3.365-7.515-7.515-7.515
			c-4.15,0-7.515,3.365-7.515,7.515v32.566h-9.018V104.21c0-4.15-3.365-7.515-7.515-7.515c-4.15,0-7.515,3.365-7.515,7.515v48.097
			c0,8.662,4.731,16.436,12.024,20.523v87.695c0,10.774,8.766,19.539,19.539,19.539s19.539-8.766,19.539-19.539v-87.695
			c7.294-4.087,12.024-11.861,12.024-20.523V104.21C328.146,100.06,324.781,96.695,320.631,96.695z M313.116,152.307
			c0,3.876-2.626,7.261-6.386,8.23c-3.32,0.856-5.638,3.849-5.638,7.277v92.712c0,2.486-2.023,4.509-4.509,4.509
			c-2.486,0-4.509-2.023-4.509-4.509v-92.711c0-3.428-2.319-6.421-5.638-7.277c-3.76-0.97-6.386-4.354-6.386-8.23v-0.501h33.067
			V152.307z"/>
	</g>
</g>
<g>
</g>
<g>
</g>
<g>
</g>
<g>
</g>
<g>
</g>
<g>
</g>
<g>
</g>
<g>
</g>
<g>
</g>
<g>
</g>
<g>
</g>
<g>
</g>
<g>
</g>
<g>
</g>
<g>
</g>
</svg>
