<?xml version="1.0" encoding="iso-8859-1"?>
<!-- Generator: Adobe Illustrator 19.0.0, SVG Export Plug-In . SVG Version: 6.00 Build 0)  -->
<svg version="1.1" id="Capa_1" xmlns="http://www.w3.org/2000/svg" xmlns:xlink="http://www.w3.org/1999/xlink" x="0px" y="0px"
	 viewBox="0 0 511.999 511.999" style="enable-background:new 0 0 511.999 511.999;" xml:space="preserve">
<g>
	<g>
		<path d="M296.488,370.157l-88.172-64.125c-2.636-1.917-6.205-1.917-8.84,0.001l-88.172,64.125
			c-2.632,1.915-3.733,5.305-2.726,8.401c1.007,3.096,3.892,5.19,7.146,5.19h24.557c-0.001,0.167-0.009,0.335-0.009,0.501
			c0,35.083,28.542,63.624,63.624,63.624s63.624-28.542,63.624-63.624c0-0.166-0.008-0.334-0.009-0.501h24.557
			c3.167,0,6.064-2.063,7.1-5.056C300.237,375.604,299.133,372.082,296.488,370.157z M203.895,432.845
			c-26.795,0-48.595-21.8-48.595-48.595c0-0.166,0.007-0.334,0.009-0.501h97.172c0.002,0.167,0.009,0.335,0.009,0.501
			C252.49,411.046,230.69,432.845,203.895,432.845z M138.832,368.72l65.063-47.318l65.063,47.318H138.832z"/>
	</g>
</g>
<g>
	<g>
		<path d="M180.85,392.767h-9.018c-4.15,0-7.515,3.365-7.515,7.515s3.365,7.515,7.515,7.515h9.018c4.15,0,7.515-3.365,7.515-7.515
			S185,392.767,180.85,392.767z"/>
	</g>
</g>
<g>
	<g>
		<path d="M235.957,392.767h-9.018c-4.15,0-7.515,3.365-7.515,7.515s3.365,7.515,7.515,7.515h9.018c4.15,0,7.515-3.365,7.515-7.515
			S240.107,392.767,235.957,392.767z"/>
	</g>
</g>
<g>
	<g>
		<path d="M208.425,410.322c-5.522-4.186-13.531,1.101-11.812,7.835c0.841,3.287,3.884,5.67,7.282,5.67
			c3.178,0,6.071-2.079,7.103-5.077C212.044,415.714,210.981,412.26,208.425,410.322z"/>
	</g>
</g>
<g>
	<g>
		<path d="M484.445,80.157h-168.83v-9.018h168.83c4.15,0,7.515-3.365,7.515-7.515s-3.365-7.515-7.515-7.515h-168.83v-0.501
			c0-4.15-3.365-7.515-7.515-7.515c-4.15,0-7.515,3.365-7.515,7.515v0.501h-17.033v-9.018h200.89c4.15,0,7.515-3.365,7.515-7.515
			c0-4.15-3.365-7.515-7.515-7.515H283.55v-9.018h200.892c4.15,0,7.515-3.365,7.515-7.515s-3.365-7.515-7.515-7.515H283.55V7.515
			c0-4.15-3.365-7.515-7.515-7.515s-7.515,3.365-7.515,7.515v0.501h-17.033V7.515c0-4.15-3.365-7.515-7.515-7.515
			s-7.515,3.365-7.515,7.515v0.501h-17.033V7.515c0-4.15-3.365-7.515-7.515-7.515s-7.515,3.365-7.515,7.515v0.501h-17.033V7.515
			c0-4.15-3.365-7.515-7.515-7.515s-7.515,3.365-7.515,7.515v0.501h-64.626c-4.15,0-7.515,3.365-7.515,7.515v24.047
			c0,4.15,3.365,7.515,7.515,7.515h64.626v9.018h-64.626c-4.15,0-7.515,3.365-7.515,7.515v24.047c0,4.15,3.365,7.515,7.515,7.515
			h64.626v81.159h-8.517c-3.234,0-6.106,2.07-7.129,5.138l-16.918,50.753l-16.918-50.753c-1.023-3.069-3.895-5.138-7.129-5.138
			H51.597c-3.234,0-6.106,2.07-7.129,5.138l-24.047,72.141c-0.476,1.427-0.509,3.027-0.087,4.471l72.141,248.485
			c0.932,3.211,3.874,5.42,7.217,5.42h208.407c3.344,0,6.284-2.209,7.217-5.42l72.141-248.485c0.422-1.445,0.388-3.045-0.087-4.471
			l-24.047-72.141c-1.023-3.069-3.895-5.138-7.129-5.138H251.49V95.186h17.033v8.517c0,4.15,3.365,7.515,7.515,7.515
			c4.15,0,7.515-3.365,7.515-7.515v-8.517h17.033v64.626c0,4.15,3.365,7.515,7.515,7.515c4.15,0,7.515-3.365,7.515-7.515V95.186
			h168.83c4.15,0,7.515-3.365,7.515-7.515C491.959,83.521,488.595,80.157,484.445,80.157z M219.425,23.045h17.033v9.018h-17.033
			V23.045z M219.425,47.092h17.033v9.018h-17.033V47.092z M219.425,71.139h17.033v9.018h-17.033V71.139z M219.425,95.186h17.033
			v81.159h-17.033V95.186z M187.362,23.045h17.033v9.018h-17.033V23.045z M187.362,47.092h17.033v9.018h-17.033V47.092z
			 M187.362,71.139h17.033v9.018h-17.033V71.139z M187.362,95.186h17.033v81.159h-17.033V95.186z M115.222,32.063v-9.018h57.112
			v9.018H115.222z M115.222,80.157v-9.018h57.112v9.018H115.222z M57.014,191.374h53.292l19.037,57.112H37.977L57.014,191.374z
			 M350.776,191.374l19.037,57.112h-68.728c-4.15,0-7.515,3.365-7.515,7.515s3.365,7.515,7.515,7.515h69.148l-67.777,233.456
			H105.334L37.557,263.515h227.791c4.15,0,7.515-3.365,7.515-7.515s-3.365-7.515-7.515-7.515H150.196l19.037-57.112H350.776z
			 M268.521,80.157h-17.033v-9.018h17.033V80.157z M268.521,56.11h-17.033v-9.018h17.033V56.11z M268.521,32.063h-17.033v-9.018
			h17.033V32.063z M300.584,80.157H283.55v-9.018h17.033V80.157z"/>
	</g>
</g>
<g>
</g>
<g>
</g>
<g>
</g>
<g>
</g>
<g>
</g>
<g>
</g>
<g>
</g>
<g>
</g>
<g>
</g>
<g>
</g>
<g>
</g>
<g>
</g>
<g>
</g>
<g>
</g>
<g>
</g>
</svg>
